# xmcd CD database file
#
# Track frame offsets:
#	150
#	14347
#	30908
#	50313
#	61961
#	76417
#	92367
#	111685
#	130639
#	143048
#	159454
#	179717
#	200328
#	218748
#	237867
#	261700
#
# Disc length: 3694 seconds
#
# Revision: 0
# Processed by: cddbd v1.4PL0 Copyright (c) Steve Scherf et al.
# Submitted via: CDex 1.50beta10
#
DISCID=db0e6c10
DTITLE=Joe Augustine  - Alone
DYEAR=2000
DGENRE=Jazz
TTITLE0=We're All Alone
TTITLE1=Willow Weep For Me
TTITLE2=Alone
TTITLE3=For All We Know 
TTITLE4=But Not For Me
TTITLE5=My Foolish Heart
TTITLE6=I'm Getting Sentimental Over You
TTITLE7=Duet For One
TTITLE8=You Took Advantage Of Me
TTITLE9=What'll I Do?
TTITLE10=An Affair To Remember
TTITLE11=She Was Too Good To Me
TTITLE12=One For My Baby
TTITLE13=Smile
TTITLE14=The Promise
TTITLE15=As Time Goes By 
EXTD=YEAR: 2000
EXTT0=
EXTT1=
EXTT2=
EXTT3=
EXTT4=
EXTT5=
EXTT6=
EXTT7=
EXTT8=
EXTT9=
EXTT10=
EXTT11=
EXTT12=
EXTT13=
EXTT14=
EXTT15=
PLAYORDER=
